<svg width="30" height="31" viewBox="0 0 30 31" fill="none" xmlns="http://www.w3.org/2000/svg">
<path d="M15 3.3125C13.9641 3.3125 13.125 4.15156 13.125 5.1875C13.125 5.26813 13.1438 5.345 13.1541 5.42188C9.91313 6.24969 7.5 9.19344 7.5 12.6875V21.125C7.5 21.6556 7.09312 22.0625 6.5625 22.0625H5.625V23.9375H12.3637C12.2511 24.2374 12.1915 24.5547 12.1875 24.875C12.1875 26.4172 13.4578 27.6875 15 27.6875C16.5422 27.6875 17.8125 26.4172 17.8125 24.875C17.8085 24.5547 17.7489 24.2374 17.6363 23.9375H24.375V22.0625H23.4375C22.9069 22.0625 22.5 21.6556 22.5 21.125V12.9509C22.5 9.42781 20.145 6.28531 16.8459 5.42188C16.8562 5.345 16.875 5.26813 16.875 5.1875C16.875 4.15156 16.0359 3.3125 15 3.3125ZM14.5894 7.0625C14.7253 7.05125 14.8612 7.0625 15 7.0625H15.1762C18.2372 7.15438 20.625 9.8375 20.625 12.9509V21.125C20.625 21.455 20.6944 21.7663 20.8012 22.0625H9.19969C9.31197 21.7625 9.37129 21.4453 9.375 21.125V12.6875C9.37232 11.2643 9.90877 9.89294 10.8764 8.84931C11.844 7.80567 13.171 7.16725 14.5903 7.0625H14.5894ZM15 23.9375C15.5278 23.9375 15.9375 24.3481 15.9375 24.875C15.9375 25.4028 15.5269 25.8125 15 25.8125C14.4722 25.8125 14.0625 25.4019 14.0625 24.875C14.0625 24.3472 14.4731 23.9375 15 23.9375Z" fill="white"/>
</svg>
