<svg width="183" height="80" viewBox="0 0 183 80" fill="none" xmlns="http://www.w3.org/2000/svg">
<g clip-path="url(#clip0_572_684)">
<path d="M39.4149 49.2987C37.6331 53.4813 32.7403 55.453 28.5788 53.6622C24.4174 51.8713 22.4556 46.9537 24.2374 42.7711C24.9687 42.4794 28.8516 41.0211 33.2046 42.9111C37.4996 44.772 39.1131 48.5521 39.4149 49.2987Z" fill="#38F3FF"/>
<path d="M54.0932 80L53.5882 76.4299C52.9266 71.7282 50.2045 59.8571 39.2988 51.1594C31.0165 44.5559 22.1015 43.0392 16.8663 42.7942C14.5331 47.4727 14.7885 52.9619 17.615 56.7712C20.1108 60.1371 23.8543 61.2163 25.8625 61.5546C33.2568 62.8146 38.817 57.3429 39.4265 56.7128L42.3343 59.5654C41.0922 60.8488 34.4292 67.1547 25.1834 65.5855C22.5716 65.1422 17.6963 63.7247 14.3532 59.2154C10.2846 53.7261 10.1221 46.0551 13.9469 39.6675L14.5505 38.6641L15.7171 38.6816C21.2193 38.7575 31.9277 40.07 41.8293 47.9685C51.4756 55.6628 55.3236 65.5914 56.85 71.9032C57.4769 71.0456 58.0805 70.0306 58.5622 68.8406C59.3632 66.8747 59.723 64.7105 59.6011 62.5813L59.5837 62.243L59.6766 61.9163C61.3481 55.9195 61.9227 49.7477 61.3888 43.5817C60.9361 38.3666 59.6882 33.2565 57.6858 28.3973L57.3144 27.5047L57.7729 26.6531C58.5564 25.1889 59.7985 22.1555 59.3226 18.3404C59.0788 16.3978 58.4694 14.7586 57.7497 13.4344C57.5175 14.0995 57.2505 14.747 56.9487 15.3887C56.0259 17.3429 54.807 19.1279 53.3212 20.6913L52.1778 21.893L50.7675 21.0004C45.2653 17.5529 34.1854 12.2328 21.7997 15.2953C19.1067 15.9603 16.4833 16.9987 13.9991 18.3754L12.5597 19.1746L11.4802 17.9262C10.0814 16.3045 8.93806 14.4903 8.09067 12.5361C7.52188 11.2236 7.09238 9.87604 6.79638 8.48768C5.49048 10.1735 4.24262 12.5361 4.07431 15.5053C3.95823 17.5704 4.40513 19.6879 5.35119 21.6421L1.70047 23.433C0.446808 20.8546 -0.139395 18.0312 0.0173126 15.272C0.423592 8.05017 5.58335 3.62841 7.15623 2.44422L10.4007 0V4.07758C10.4007 6.45763 10.8766 8.75602 11.811 10.9086C12.287 11.9994 12.8732 13.0319 13.5638 14.0003C15.9029 12.8453 18.3405 11.9469 20.8304 11.3344C33.6108 8.1785 44.9983 12.9153 51.4233 16.6428C52.143 15.7153 52.764 14.7061 53.269 13.6328C54.0351 12.0052 54.5226 10.2727 54.7142 8.48768L55.1727 4.27592L58.1676 7.26265C59.8159 8.90769 62.6831 12.4661 63.3447 17.8329C63.8729 22.103 62.7469 25.6089 61.7776 27.7031C63.7394 32.6848 64.964 37.9 65.4284 43.2259C65.9972 49.7769 65.4051 56.3278 63.6697 62.698C63.7684 65.323 63.3041 67.9714 62.3174 70.3923C60.849 73.9974 58.5506 76.3774 56.8791 77.7425L54.0932 80Z" fill="white"/>
<path d="M90.2405 30.5733C91.5116 31.1508 92.4925 31.9733 93.1774 33.035C93.8622 34.0967 94.2105 35.3567 94.2105 36.8151C94.2105 38.2501 93.868 39.5101 93.1774 40.5835C92.4925 41.6568 91.5116 42.4793 90.2405 43.0452C88.9695 43.6169 87.4662 43.8969 85.7424 43.8969H81.8131V49.2987H77.2976V29.6982H85.7366C87.472 29.7041 88.9695 29.9957 90.2405 30.5733ZM88.5864 39.3234C89.2945 38.7343 89.6427 37.9001 89.6427 36.8151C89.6427 35.7125 89.2887 34.8667 88.5864 34.2833C87.8783 33.6942 86.851 33.4025 85.4929 33.4025H81.8131V40.2043H85.4929C86.8452 40.2043 87.8783 39.9126 88.5864 39.3234Z" fill="white"/>
<path d="M103.363 34.581C104.245 34.2077 105.261 34.021 106.416 34.021V38.0519C105.934 38.0169 105.609 37.9936 105.441 37.9936C104.199 37.9936 103.224 38.3436 102.516 39.0436C101.808 39.7436 101.459 40.7936 101.459 42.1937V49.3047H97.1123V34.2427H101.262V36.2319C101.779 35.5027 102.481 34.9543 103.363 34.581Z" fill="white"/>
<path d="M111.75 48.5346C110.496 47.8696 109.515 46.9538 108.813 45.7754C108.105 44.5971 107.757 43.267 107.757 41.7737C107.757 40.2803 108.111 38.9444 108.813 37.7719C109.521 36.5936 110.496 35.6777 111.75 35.0127C113.004 34.3477 114.42 34.021 115.999 34.021C117.577 34.021 118.988 34.3535 120.235 35.0127C121.477 35.6777 122.453 36.5936 123.161 37.7719C123.869 38.9503 124.217 40.2803 124.217 41.7737C124.217 43.267 123.863 44.6029 123.161 45.7754C122.453 46.9538 121.477 47.8696 120.235 48.5346C118.993 49.1996 117.577 49.5263 115.999 49.5263C114.42 49.5322 113.004 49.1996 111.75 48.5346ZM118.744 44.8129C119.458 44.0545 119.818 43.0454 119.818 41.7737C119.818 40.502 119.458 39.4928 118.744 38.7344C118.03 37.9761 117.113 37.6027 115.999 37.6027C114.884 37.6027 113.967 37.9819 113.242 38.7344C112.516 39.4869 112.156 40.502 112.156 41.7737C112.156 43.0454 112.516 44.0545 113.242 44.8129C113.967 45.5712 114.884 45.9446 115.999 45.9446C117.113 45.9446 118.03 45.5712 118.744 44.8129Z" fill="white"/>
<path d="M130.05 48.5346C128.779 47.8696 127.787 46.9538 127.067 45.7754C126.353 44.5971 125.993 43.267 125.993 41.7737C125.993 40.2803 126.353 38.9444 127.067 37.7719C127.781 36.5936 128.773 35.6777 130.05 35.0127C131.321 34.3477 132.755 34.021 134.357 34.021C135.935 34.021 137.317 34.3535 138.495 35.0127C139.673 35.6777 140.532 36.6227 141.072 37.8536L137.7 39.6736C136.922 38.2911 135.796 37.6027 134.328 37.6027C133.196 37.6027 132.256 37.9761 131.513 38.7228C130.77 39.4694 130.398 40.4845 130.398 41.7737C130.398 43.0629 130.77 44.0779 131.513 44.8246C132.256 45.5712 133.196 45.9446 134.328 45.9446C135.814 45.9446 136.94 45.2562 137.7 43.8737L141.072 45.7229C140.532 46.9188 139.673 47.8521 138.495 48.523C137.317 49.1938 135.935 49.5322 134.357 49.5322C132.761 49.5322 131.327 49.1997 130.05 48.5346Z" fill="white"/>
<path d="M153.469 48.5812C153.04 48.8962 152.517 49.1353 151.896 49.2928C151.275 49.4503 150.619 49.532 149.935 49.532C148.153 49.532 146.771 49.077 145.796 48.1611C144.821 47.2453 144.334 45.9036 144.334 44.1302V37.9409H142.024V34.5809H144.334V30.9116H148.681V34.5809H152.413V37.9409H148.681V44.0719C148.681 44.7077 148.843 45.1977 149.168 45.5419C149.493 45.8861 149.952 46.0611 150.55 46.0611C151.235 46.0611 151.821 45.8744 152.303 45.5011L153.469 48.5812Z" fill="white"/>
<path d="M158.327 48.5346C157.073 47.8696 156.093 46.9538 155.39 45.7754C154.682 44.5971 154.334 43.267 154.334 41.7737C154.334 40.2803 154.688 38.9444 155.39 37.7719C156.098 36.5936 157.073 35.6777 158.327 35.0127C159.581 34.3477 160.997 34.021 162.576 34.021C164.154 34.021 165.565 34.3535 166.813 35.0127C168.055 35.6777 169.03 36.5936 169.738 37.7719C170.446 38.9503 170.794 40.2803 170.794 41.7737C170.794 43.267 170.44 44.6029 169.738 45.7754C169.03 46.9538 168.055 47.8696 166.813 48.5346C165.57 49.1996 164.154 49.5263 162.576 49.5263C160.997 49.5322 159.581 49.1996 158.327 48.5346ZM165.321 44.8129C166.035 44.0545 166.395 43.0454 166.395 41.7737C166.395 40.502 166.035 39.4928 165.321 38.7344C164.607 37.9761 163.69 37.6027 162.576 37.6027C161.461 37.6027 160.544 37.9819 159.819 38.7344C159.093 39.4869 158.733 40.502 158.733 41.7737C158.733 43.0454 159.093 44.0545 159.819 44.8129C160.544 45.5712 161.461 45.9446 162.576 45.9446C163.69 45.9446 164.607 45.5712 165.321 44.8129Z" fill="white"/>
<path d="M179.947 34.581C180.829 34.2077 181.845 34.021 183 34.021V38.0519C182.518 38.0169 182.193 37.9936 182.025 37.9936C180.783 37.9936 179.808 38.3436 179.1 39.0436C178.392 39.7436 178.043 40.7936 178.043 42.1937V49.3047H173.696V34.2427H177.846V36.2319C178.363 35.5027 179.065 34.9543 179.947 34.581Z" fill="white"/>
<path d="M96.0503 59.4546L87.6113 79.055H83.1538L74.738 59.4546H79.6134L85.5451 73.4549L91.5638 59.4546H96.0503Z" fill="white"/>
<path d="M97.8612 61.1931C97.3621 60.7264 97.1067 60.1489 97.1067 59.4547C97.1067 58.7664 97.3563 58.1831 97.8612 57.7164C98.3662 57.2497 99.0104 57.0164 99.8114 57.0164C100.612 57.0164 101.262 57.238 101.761 57.6872C102.261 58.1364 102.516 58.6964 102.516 59.3672C102.516 60.0964 102.266 60.6973 101.761 61.1756C101.262 61.654 100.612 61.8873 99.8114 61.8873C99.0104 61.8931 98.3604 61.6598 97.8612 61.1931ZM97.6407 63.9932H101.988V79.0551H97.6407V63.9932Z" fill="white"/>
<path d="M107.415 78.8218C106.225 78.5127 105.279 78.1277 104.571 77.661L106.022 74.5226C106.689 74.9543 107.496 75.3043 108.448 75.5726C109.4 75.8409 110.323 75.9809 111.234 75.9809C113.074 75.9809 113.991 75.5259 113.991 74.6101C113.991 74.1784 113.741 73.8751 113.236 73.6884C112.737 73.5017 111.965 73.3442 110.926 73.21C109.702 73.0234 108.686 72.8075 107.891 72.5684C107.096 72.3292 106.399 71.8975 105.813 71.2792C105.227 70.6667 104.936 69.7858 104.936 68.6483C104.936 67.6974 105.209 66.8516 105.761 66.1166C106.306 65.3815 107.107 64.804 108.158 64.3957C109.208 63.9873 110.444 63.7773 111.878 63.7773C112.934 63.7773 113.991 63.894 115.041 64.1274C116.092 64.3607 116.957 64.6815 117.647 65.0957L116.196 68.2049C114.879 67.4583 113.439 67.0849 111.878 67.0849C110.949 67.0849 110.253 67.2132 109.789 67.4758C109.324 67.7383 109.092 68.0708 109.092 68.4849C109.092 68.9516 109.342 69.2783 109.847 69.465C110.352 69.6516 111.147 69.8266 112.244 69.9958C113.468 70.2 114.472 70.4217 115.25 70.655C116.028 70.8883 116.707 71.3142 117.282 71.9267C117.856 72.5392 118.146 73.4026 118.146 74.5051C118.146 75.4384 117.868 76.2668 117.311 76.996C116.753 77.7252 115.941 78.291 114.873 78.6877C113.805 79.0902 112.54 79.2885 111.071 79.2885C109.823 79.2827 108.605 79.1252 107.415 78.8218Z" fill="white"/>
<path d="M121.036 61.1931C120.537 60.7264 120.282 60.1489 120.282 59.4547C120.282 58.7664 120.531 58.1831 121.036 57.7164C121.541 57.2497 122.185 57.0164 122.986 57.0164C123.787 57.0164 124.437 57.238 124.937 57.6872C125.436 58.1364 125.691 58.6964 125.691 59.3672C125.691 60.0964 125.441 60.6973 124.937 61.1756C124.437 61.654 123.787 61.8873 122.986 61.8873C122.191 61.8931 121.541 61.6598 121.036 61.1931ZM120.816 63.9932H125.163V79.0551H120.816V63.9932Z" fill="white"/>
<path d="M132.087 78.2851C130.833 77.6201 129.853 76.7043 129.15 75.5259C128.442 74.3475 128.094 73.0175 128.094 71.5241C128.094 70.0308 128.448 68.6949 129.15 67.5224C129.858 66.344 130.833 65.4282 132.087 64.7632C133.341 64.0982 134.757 63.7715 136.336 63.7715C137.914 63.7715 139.325 64.104 140.573 64.7632C141.815 65.4282 142.79 66.344 143.498 67.5224C144.206 68.7008 144.554 70.0308 144.554 71.5241C144.554 73.0175 144.2 74.3534 143.498 75.5259C142.79 76.7043 141.815 77.6201 140.573 78.2851C139.331 78.9501 137.914 79.2768 136.336 79.2768C134.757 79.2826 133.341 78.9501 132.087 78.2851ZM139.075 74.5634C139.789 73.805 140.149 72.7958 140.149 71.5241C140.149 70.2525 139.789 69.2433 139.075 68.4849C138.361 67.7266 137.444 67.3532 136.33 67.3532C135.216 67.3532 134.298 67.7324 133.573 68.4849C132.847 69.2374 132.488 70.2525 132.488 71.5241C132.488 72.7958 132.847 73.805 133.573 74.5634C134.298 75.3217 135.216 75.6951 136.33 75.6951C137.444 75.6951 138.361 75.3217 139.075 74.5634Z" fill="white"/>
<path d="M161.061 65.4515C162.204 66.5715 162.773 68.2341 162.773 70.4333V79.0551H158.426V71.1041C158.426 69.9083 158.165 69.0157 157.648 68.4324C157.126 67.8432 156.377 67.5515 155.39 67.5515C154.293 67.5515 153.423 67.8899 152.773 68.5724C152.123 69.2549 151.798 70.2641 151.798 71.6116V79.0609H147.45V63.9931H151.6V65.7548C152.175 65.119 152.889 64.629 153.748 64.2848C154.607 63.9406 155.541 63.7656 156.563 63.7656C158.414 63.7715 159.917 64.3315 161.061 65.4515Z" fill="white"/>
<path d="M166.424 78.495C165.901 77.97 165.646 77.3166 165.646 76.5349C165.646 75.7299 165.907 75.0824 166.424 74.5866C166.946 74.0907 167.585 73.8457 168.345 73.8457C169.105 73.8457 169.749 74.0965 170.266 74.5866C170.788 75.0824 171.044 75.7299 171.044 76.5349C171.044 77.3166 170.783 77.97 170.266 78.495C169.744 79.02 169.105 79.2766 168.345 79.2766C167.585 79.2825 166.94 79.02 166.424 78.495Z" fill="white"/>
</g>
<defs>
<clipPath id="clip0_572_684">
<rect width="183" height="80" fill="white"/>
</clipPath>
</defs>
</svg>
