<svg width="26" height="27" viewBox="0 0 26 27" fill="none" xmlns="http://www.w3.org/2000/svg">
<path d="M1.48656 0.638489L0.137497 1.98755L24.5125 26.3625L25.8606 25.0144L22.375 21.5279V20.0625H21.4375C20.9219 20.0625 20.5 19.6407 20.5 19.125V10.951C20.5 7.36224 18.0794 4.31536 14.8459 3.45099C14.8562 3.3638 14.875 3.27943 14.875 3.18755C14.875 2.69027 14.6775 2.21336 14.3258 1.86173C13.9742 1.5101 13.4973 1.31255 13 1.31255C12.5027 1.31255 12.0258 1.5101 11.6742 1.86173C11.3225 2.21336 11.125 2.69027 11.125 3.18755C11.125 3.26818 11.1437 3.34505 11.1541 3.42193C9.88574 3.74013 8.72363 4.38683 7.78468 5.29693C7.50343 5.5688 7.25406 5.87161 7.02343 6.1763L1.48656 0.638489ZM12.5903 5.06255C12.7852 5.0516 12.9805 5.0516 13.1753 5.06255C16.1828 5.15443 18.625 7.79068 18.625 10.951V17.7769L8.37062 7.52443C8.57968 7.21693 8.8 6.90943 9.07375 6.64505C10.0375 5.70755 11.2675 5.15443 12.5894 5.06349L12.5903 5.06255ZM5.52812 9.98442C5.50771 10.2182 5.49832 10.4529 5.5 10.6875V19.125C5.5 19.6407 5.07812 20.0625 4.5625 20.0625H3.625V21.9375H10.3637C10.2511 22.2375 10.1915 22.5547 10.1875 22.875C10.1875 24.4172 11.4578 25.6875 13 25.6875C14.5422 25.6875 15.8125 24.4172 15.8125 22.875C15.8085 22.5547 15.7489 22.2375 15.6362 21.9375H17.5112L15.6362 20.0625H7.19875C7.30562 19.7691 7.375 19.455 7.375 19.125V11.8004L5.52812 9.98442ZM13 21.9375C13.5278 21.9375 13.9375 22.3482 13.9375 22.875C13.9375 23.4029 13.5269 23.8125 13 23.8125C12.4722 23.8125 12.0625 23.4019 12.0625 22.875C12.0625 22.3472 12.4731 21.9375 13 21.9375Z" fill="white" fill-opacity="0.5"/>
</svg>
