<svg width="69" height="69" viewBox="0 0 69 69" fill="none" xmlns="http://www.w3.org/2000/svg">
<path d="M40.2114 42.52C38.6677 46.1275 34.4288 47.8281 30.8235 46.2835C27.2183 44.7388 25.5187 40.4974 27.0624 36.8899C27.6959 36.6384 31.0599 35.3805 34.8311 37.0107C38.552 38.6157 39.9499 41.876 40.2114 42.52Z" fill="#38F3FF"/>
<path d="M52.9282 69L52.4908 65.9208C51.9175 61.8655 49.5593 51.6267 40.1111 44.125C32.9357 38.4295 25.2123 37.1213 20.6768 36.91C18.6554 40.9452 18.8767 45.6797 21.3254 48.9651C23.4876 51.8682 26.7308 52.799 28.4706 53.0909C34.8767 54.1776 39.6938 49.4582 40.2217 48.9148L42.7409 51.3752C41.6649 52.4821 35.8924 57.921 27.8823 56.5675C25.6196 56.1851 21.3958 54.9625 18.4995 51.0733C14.9747 46.3388 14.8339 39.7225 18.1476 34.2132L18.6705 33.3478L19.6812 33.3629C24.448 33.4283 33.7252 34.5604 42.3035 41.3728C50.6605 48.0092 53.9942 56.5726 55.3167 62.0165C55.8597 61.2769 56.3827 60.4014 56.8 59.375C57.4939 57.6795 57.8057 55.8128 57.7001 53.9764L57.685 53.6846L57.7654 53.4028C59.2136 48.2306 59.7114 42.9074 59.2488 37.5893C58.8566 33.0912 57.7755 28.6838 56.0407 24.4926L55.7189 23.7228L56.1162 22.9883C56.795 21.7254 57.871 19.1091 57.4587 15.8186C57.2475 14.1431 56.7196 12.7293 56.096 11.5872C55.8949 12.1608 55.6636 12.7193 55.4021 13.2727C54.6026 14.9582 53.5467 16.4978 52.2595 17.8462L51.2689 18.8827L50.047 18.1129C45.2802 15.1393 35.6812 10.5508 24.9508 13.1922C22.6177 13.7658 20.3449 14.6614 18.1928 15.8488L16.9458 16.5381L16.0105 15.4614C14.7987 14.0626 13.8081 12.4979 13.074 10.8124C12.5812 9.68033 12.2091 8.51808 11.9527 7.32062C10.8213 8.77468 9.74025 10.8124 9.59443 13.3733C9.49387 15.1544 9.88105 16.9808 10.7007 18.6663L7.53786 20.211C6.45175 17.9871 5.9439 15.5519 6.07966 13.1721C6.43164 6.94327 10.9018 3.1295 12.2645 2.10814L15.0753 0V3.51692C15.0753 5.56971 15.4876 7.55206 16.2971 9.40863C16.7095 10.3495 17.2173 11.24 17.8157 12.0753C19.8421 11.079 21.954 10.3042 24.1111 9.77592C35.1834 7.05396 45.0489 11.1394 50.6152 14.3545C51.2387 13.5545 51.7767 12.684 52.2142 11.7583C52.8779 10.3545 53.3003 8.86022 53.4662 7.32062L53.8635 3.68798L56.4581 6.26404C57.8861 7.68288 60.3701 10.752 60.9433 15.3809C61.4009 19.0638 60.4254 22.0876 59.5857 23.8939C61.2852 28.1907 62.3462 32.6887 62.7485 37.2823C63.2412 42.9326 62.7284 48.5828 61.2249 54.077C61.3104 56.3411 60.9081 58.6253 60.0533 60.7134C58.7812 63.8227 56.79 65.8755 55.3418 67.0529L52.9282 69Z" fill="white"/>
</svg>
